<svg class="icon" width="48" height="48" viewBox="0 0 1024 1024" xmlns="http://www.w3.org/2000/svg"><path d="M568 491.2H342.4c-11.2 0-19.2 8-19.2 19.2s8 19.2 19.2 19.2H568c11.2 0 19.2-8 19.2-19.2s-8-19.2-19.2-19.2zm0 116.8H342.4c-11.2 0-19.2 8-19.2 19.2s8 19.2 19.2 19.2H568c11.2 0 19.2-8 19.2-19.2 0-9.6-8-19.2-19.2-19.2z"/><path d="M737.6 211.2H398.4c-41.6 0-75.2 33.6-75.2 75.2v36.8h-36.8c-41.6 0-75.2 33.6-75.2 75.2v339.2c0 41.6 33.6 75.2 75.2 75.2h339.2c41.6 0 75.2-33.6 75.2-75.2v-36.8h36.8c41.6 0 75.2-33.6 75.2-75.2V286.4c0-41.6-33.6-75.2-75.2-75.2zm-75.2 526.4c0 20.8-16 38.4-38.4 38.4H286.4c-20.8 0-38.4-16-38.4-38.4V398.4c0-20.8 16-38.4 38.4-38.4h339.2c20.8 0 38.4 16 38.4 38.4v339.2zm113.6-112c0 20.8-16 38.4-38.4 38.4h-36.8V398.4c0-41.6-33.6-75.2-75.2-75.2h-264v-36.8c0-20.8 16-38.4 38.4-38.4h339.2c20.8 0 38.4 16 38.4 38.4v339.2z"/></svg>