<svg class="icon" width="48" height="48" viewBox="0 0 1024 1024" xmlns="http://www.w3.org/2000/svg"><path d="M800.577 315.98c-.412-.042-.83-.064-1.253-.064H686.612v-70.028c0-23.204-18.812-42.018-42.018-42.018h-266.11c-23.206 0-42.019 18.814-42.019 42.018v70.028H224.857c-.061 0-.12-.01-.182-.01-11.61 0-21.022 9.412-21.022 21.023 0 11.61 9.412 21.021 21.022 21.021.094 0 .185-.013.28-.014h573.908c.155.003.305.024.46.024 11.61 0 21.023-9.412 21.023-21.022 0-11.188-8.745-20.308-19.769-20.958zm-155.983-.064h-266.11v-56.022c0-7.736 6.27-14.006 14.005-14.006h238.1c7.735 0 14.006 6.27 14.006 14.006v56.022zM441.506 703.945c11.61 0 21.022-9.412 21.022-21.022 0-.22-.025-.431-.032-.648.005-.151.022-.3.022-.453V427.109c.017-.35.053-.696.053-1.05 0-11.61-9.411-21.022-21.022-21.022-11.609 0-21.021 9.411-21.021 21.022 0 .067.009.133.01.2-.015.252-.038.502-.038.757v254.807c0 .135.016.266.02.4-.008.234-.035.463-.035.7 0 11.61 9.412 21.022 21.021 21.022zM721.644 405c-11.61 0-21.022 9.411-21.022 21.022 0 .08.011.156.012.235l-.017.042v317.2c0 23.205-11.407 34.61-34.614 34.61h-308.93c-23.206 0-34.614-11.405-34.614-34.61V426.834c.01-.259.039-.512.039-.773 0-11.61-9.411-21.022-21.022-21.022-11.61 0-21.022 9.411-21.022 21.022 0 .061.01.121.01.183-.007.02-.017.038-.024.057v351.81c0 23.206 18.812 42.02 42.018 42.02h378.159c23.205 0 42.018-18.814 42.018-42.02V426.618c.005-.2.03-.394.03-.595 0-11.61-9.41-21.02-21.021-21.02zm-119.067 22.69a20.93 20.93 0 00.084-1.67c0-11.609-9.412-21.021-21.02-21.021-11.494 0-20.818 9.226-21.005 20.675-.048.441-.077.887-.077 1.341v254.807c0 .233.021.46.035.69-.002.126-.019.248-.019.374 0 11.61 9.412 21.02 21.022 21.02 11.61 0 21.022-9.41 21.022-21.02 0-.317-.034-.625-.047-.938 0-.042.006-.083.006-.126V427.69z"/></svg>