<svg class="icon" viewBox="0 0 1024 1024" xmlns="http://www.w3.org/2000/svg" width="48" height="48"><defs><style/></defs><path d="M880.306 463.051h-34.85c-15.002-151.086-135.154-271.233-286.248-286.235v-34.849c0-16.955-13.744-30.699-30.7-30.699h-2.563c-16.956 0-30.7 13.744-30.7 30.7v34.848C344.152 191.818 224 311.966 208.998 463.051h-34.85c-16.955 0-30.701 13.744-30.701 30.7v2.562c0 16.955 13.746 30.699 30.7 30.699h34.85C224 678.099 344.153 798.245 495.246 813.247v34.849c0 16.955 13.745 30.699 30.7 30.699h2.563c16.956 0 30.7-13.744 30.7-30.7v-34.848c151.094-15.002 271.245-135.15 286.248-286.235h34.85c16.956 0 30.7-13.744 30.7-30.7v-2.562c0-16.955-13.744-30.699-30.7-30.699zM765.361 595.596c-13.012 30.764-31.653 58.404-55.406 82.156-23.752 23.751-51.395 42.392-82.16 55.404a255.55 255.55 0 01-68.587 18.333V623.392c0-16.955-13.744-30.7-30.7-30.7h-2.563c-16.956 0-30.7 13.745-30.7 30.7v128.097a255.56 255.56 0 01-68.587-18.333c-30.765-13.011-58.407-31.652-82.16-55.404-23.752-23.75-42.393-51.392-55.406-82.156a255.485 255.485 0 01-18.334-68.584H398.86c16.954 0 30.7-13.744 30.7-30.7v-2.562c0-16.955-13.746-30.699-30.7-30.699H270.758a255.485 255.485 0 0118.334-68.584c13.012-30.764 31.653-58.404 55.406-82.156 23.752-23.75 51.395-42.391 82.16-55.404a255.554 255.554 0 0168.586-18.333V366.67c0 16.955 13.745 30.7 30.7 30.7h2.563c16.955 0 30.7-13.745 30.7-30.7V238.574a255.513 255.513 0 0168.587 18.333c30.765 13.011 58.407 31.652 82.16 55.404 23.753 23.75 42.393 51.392 55.406 82.156a255.485 255.485 0 0118.334 68.584H655.591c-16.956 0-30.7 13.744-30.7 30.7v2.562c0 16.955 13.744 30.699 30.7 30.699h128.103a255.531 255.531 0 01-18.333 68.584z"/></svg>