<svg class="icon" width="48" height="48" viewBox="0 0 1024 1024" xmlns="http://www.w3.org/2000/svg"><path d="M684.973 754.162H228.324a69.19 69.19 0 01-69.189-69.189V228.324a69.19 69.19 0 0169.19-69.189h456.648a69.19 69.19 0 0169.19 69.19v456.648a69.19 69.19 0 01-69.19 69.19zM228.324 214.486a13.838 13.838 0 00-13.838 13.838v456.649a13.838 13.838 0 0013.838 13.838h456.649a13.838 13.838 0 0013.838-13.838V228.324a13.838 13.838 0 00-13.838-13.838zm567.352 650.379H325.189A69.19 69.19 0 01256 795.675v-69.189a27.676 27.676 0 0155.351 0v69.19a13.838 13.838 0 0013.838 13.838h470.487a13.838 13.838 0 0013.838-13.838V325.189a13.838 13.838 0 00-13.838-13.838h-69.19a27.676 27.676 0 010-55.351h69.19a69.19 69.19 0 0169.189 69.19v470.486a69.19 69.19 0 01-69.19 69.189zM411.814 603.468a27.676 27.676 0 01-19.65-8.441l-87.732-87.732a27.676 27.676 0 0139.162-39.16l69.189 69.188 184.873-186.672a27.676 27.676 0 1138.885 39.16L431.325 595.028a27.676 27.676 0 01-19.51 8.441z"/></svg>